<svg xmlns="http://www.w3.org/2000/svg" width="16" height="16" viewBox="0 0 16 16">
  <g id="日历12" transform="translate(-1568 -93)">
    <rect id="矩形_142" data-name="矩形 142" width="16" height="16" transform="translate(1568 93)" fill="none"/>
    <g id="组_301" data-name="组 301" transform="translate(644.498 -101.206)">
      <path id="路径_61" data-name="路径 61" d="M926,202.081h11a.5.5,0,0,1,.5.5v6.081a1.081,1.081,0,0,1-1.079,1.079h-9.844a1.081,1.081,0,0,1-1.079-1.079v-6.081A.5.5,0,0,1,926,202.081Zm10.5,1h-10v5.581a.079.079,0,0,0,.079.079h9.844a.079.079,0,0,0,.079-.079Z" transform="translate(0 -1.534)" />
      <path id="路径_62" data-name="路径 62" d="M926.743,197.379h9.681a1.081,1.081,0,0,1,1.079,1.079v2.9a.5.5,0,0,1-.5.5H926a.5.5,0,0,1-.5-.5v-2.732A1.244,1.244,0,0,1,926.743,197.379Zm9.76,3.475v-2.4a.079.079,0,0,0-.079-.079h-9.681a.243.243,0,0,0-.243.243v2.232Z" transform="translate(0 -0.307)" />
      <path id="路径_63" data-name="路径 63" d="M930.31,199.52a.5.5,0,0,1-.5-.5V196.7a.5.5,0,0,1,1,0v2.316A.5.5,0,0,1,930.31,199.52Z" transform="translate(-1.125 0)" />
      <path id="路径_64" data-name="路径 64" d="M936.579,199.52a.5.5,0,0,1-.5-.5V196.7a.5.5,0,0,1,1,0v2.316A.5.5,0,0,1,936.579,199.52Z" transform="translate(-2.761 0)" />
      <path id="路径_65" data-name="路径 65" d="M936.749,208.958h-1.737a.5.5,0,0,1,0-1h1.737a.5.5,0,0,1,0,1Z" transform="translate(-2.352 -3.068)" />
      <path id="路径_66" data-name="路径 66" d="M931.263,208.958h-1.737a.5.5,0,0,1,0-1h1.737a.5.5,0,0,1,0,1Z" transform="translate(-0.92 -3.068)" />
      <path id="路径_67" data-name="路径 67" d="M936.749,205.824h-1.737a.5.5,0,0,1,0-1h1.737a.5.5,0,0,1,0,1Z" transform="translate(-2.352 -2.25)" />
      <path id="路径_68" data-name="路径 68" d="M931.263,205.824h-1.737a.5.5,0,0,1,0-1h1.737a.5.5,0,0,1,0,1Z" transform="translate(-0.92 -2.25)" />
    </g>
  </g>
</svg>
