<svg xmlns="http://www.w3.org/2000/svg" width="15.83" height="15.815" viewBox="0 0 15.83 15.815">
  <g id="组_3895" data-name="组 3895" transform="translate(-6.102 -6.038)">
    <path id="直线_785" data-name="直线 785" d="M14.33.75H0A.75.75,0,0,1-.75,0,.75.75,0,0,1,0-.75H14.33a.75.75,0,0,1,.75.75A.75.75,0,0,1,14.33.75Z" transform="translate(6.852 9.895)" />
    <path id="路径_647" data-name="路径 647" d="M203.929,31.765a.75.75,0,0,1-.75-.75v-2a.359.359,0,0,0-.359-.359h-5.509a.359.359,0,0,0-.359.359v2a.75.75,0,0,1-1.5,0v-2a1.861,1.861,0,0,1,1.859-1.859h5.509a1.861,1.861,0,0,1,1.859,1.859v2A.75.75,0,0,1,203.929,31.765Z" transform="translate(-185.926 -21.12)" />
    <path id="路径_648" data-name="路径 648" d="M203.78,42.973h-7.46a1.852,1.852,0,0,1-1.849-1.85V32.977a.75.75,0,0,1,1.5,0v8.146a.35.35,0,0,0,.349.35h7.46a.35.35,0,0,0,.35-.35V32.977a.75.75,0,0,1,1.5,0v8.146A1.852,1.852,0,0,1,203.78,42.973Z" transform="translate(-185.926 -21.12)" />
    <path id="直线_786" data-name="直线 786" d="M0,6.453A.75.75,0,0,1-.75,5.7V0A.75.75,0,0,1,0-.75.75.75,0,0,1,.75,0V5.7A.75.75,0,0,1,0,6.453Z" transform="translate(12.668 11.857)" />
    <path id="直线_787" data-name="直线 787" d="M0,6.453A.75.75,0,0,1-.75,5.7V0A.75.75,0,0,1,0-.75.75.75,0,0,1,.75,0V5.7A.75.75,0,0,1,0,6.453Z" transform="translate(15.52 11.857)" />
  </g>
</svg>
